<svg width="26" height="26" viewBox="0 0 26 26" fill="none" xmlns="http://www.w3.org/2000/svg">
<g clip-path="url(#clip0_588_139)">
<path d="M12.7912 1.59894C13.8514 1.59894 14.8681 2.02009 15.6177 2.76973C16.3674 3.51938 16.7885 4.53612 16.7885 5.59628V6.39575H8.79385V5.59628C8.79385 4.53612 9.215 3.51938 9.96465 2.76973C10.7143 2.02009 11.731 1.59894 12.7912 1.59894ZM18.3875 6.39575V5.59628C18.3875 4.11206 17.7979 2.68862 16.7484 1.63911C15.6989 0.589607 14.2754 0 12.7912 0C11.307 0 9.88354 0.589607 8.83403 1.63911C7.78452 2.68862 7.19492 4.11206 7.19492 5.59628V6.39575H1.59863V22.3851C1.59863 23.2333 1.93555 24.0467 2.53527 24.6464C3.13499 25.2461 3.94838 25.583 4.79651 25.583H20.7859C21.634 25.583 22.4474 25.2461 23.0471 24.6464C23.6468 24.0467 23.9838 23.2333 23.9838 22.3851V6.39575H18.3875ZM3.19757 7.99469H22.3848V22.3851C22.3848 22.8092 22.2164 23.2159 21.9165 23.5158C21.6167 23.8156 21.21 23.9841 20.7859 23.9841H4.79651C4.37244 23.9841 3.96575 23.8156 3.66589 23.5158C3.36603 23.2159 3.19757 22.8092 3.19757 22.3851V7.99469Z" fill="#191919"/>
</g>
<defs>
<clipPath id="clip0_588_139">
<rect width="25.583" height="25.583" fill="white"/>
</clipPath>
</defs>
</svg>
