<svg width="22" height="22" viewBox="0 0 22 22" fill="none" xmlns="http://www.w3.org/2000/svg">
<path d="M15.2969 2.92188C13.4922 2.92188 11.923 3.7357 11 5.09953C10.077 3.7357 8.50781 2.92188 6.70312 2.92188C5.33609 2.92347 4.0255 3.46722 3.05886 4.43386C2.09222 5.4005 1.54847 6.71109 1.54688 8.07812C1.54688 10.5875 3.11094 13.1991 6.19609 15.8391C7.60981 17.0438 9.13689 18.1087 10.7559 19.0188C10.831 19.0591 10.9148 19.0802 11 19.0802C11.0852 19.0802 11.169 19.0591 11.2441 19.0188C12.8631 18.1087 14.3902 17.0438 15.8039 15.8391C18.8891 13.1991 20.4531 10.5875 20.4531 8.07812C20.4515 6.71109 19.9078 5.4005 18.9411 4.43386C17.9745 3.46722 16.6639 2.92347 15.2969 2.92188ZM11 17.9704C9.58977 17.1566 2.57812 12.8666 2.57812 8.07812C2.57926 6.98446 3.01422 5.93591 3.78757 5.16257C4.56091 4.38922 5.60946 3.95426 6.70312 3.95312C8.44594 3.95312 9.90945 4.88383 10.523 6.38258C10.5619 6.47715 10.628 6.55804 10.7129 6.61496C10.7978 6.67189 10.8978 6.70228 11 6.70228C11.1022 6.70228 11.2022 6.67189 11.2871 6.61496C11.372 6.55804 11.4381 6.47715 11.477 6.38258C12.0905 4.88383 13.5541 3.95312 15.2969 3.95312C16.3905 3.95426 17.4391 4.38922 18.2124 5.16257C18.9858 5.93591 19.4207 6.98446 19.4219 8.07812C19.4219 12.8666 12.4102 17.1566 11 17.9704Z" fill="white"/>
</svg>
