<svg width="24" height="24" viewBox="0 0 24 24" fill="none" xmlns="http://www.w3.org/2000/svg">
<g clip-path="url(#clip0_278_611)">
<path d="M22.909 22.959H22.959V22.909V19.2726C22.959 17.838 21.7122 16.5528 19.7338 15.6292C17.7513 14.7036 15.0165 14.1317 11.9999 14.1317C8.98336 14.1317 6.24856 14.7036 4.26603 15.6292C2.2876 16.5528 1.04082 17.838 1.04082 19.2726V22.909V22.959H1.09082H22.909ZM11.9999 15.6863C14.6063 15.6863 16.9636 16.0929 18.6674 16.7484C19.5195 17.0762 20.2056 17.4652 20.6779 17.8946C21.1501 18.324 21.4045 18.7898 21.4045 19.2726V21.4045H2.59537V19.2726C2.59537 18.7898 2.84974 18.324 3.32196 17.8946C3.79419 17.4652 4.48031 17.0762 5.33241 16.7484C7.03626 16.0929 9.39354 15.6863 11.9999 15.6863ZM15.6351 2.54656C14.671 1.58245 13.3634 1.04082 11.9999 1.04082C10.6365 1.04082 9.32885 1.58245 8.36474 2.54656C7.40063 3.51067 6.859 4.81828 6.859 6.18173C6.859 7.54518 7.40063 8.85279 8.36474 9.8169C9.32885 10.781 10.6365 11.3226 11.9999 11.3226C13.3634 11.3226 14.671 10.781 15.6351 9.8169C16.5992 8.85279 17.1408 7.54518 17.1408 6.18173C17.1408 4.81828 16.5992 3.51067 15.6351 2.54656ZM9.46397 3.64579C10.1365 2.97321 11.0487 2.59537 11.9999 2.59537C12.9511 2.59537 13.8633 2.97321 14.5359 3.64579C15.2084 4.31836 15.5863 5.23057 15.5863 6.18173C15.5863 7.13289 15.2084 8.0451 14.5359 8.71767C13.8633 9.39024 12.9511 9.76809 11.9999 9.76809C11.0487 9.76809 10.1365 9.39024 9.46397 8.71767C8.7914 8.0451 8.41355 7.13289 8.41355 6.18173C8.41355 5.23057 8.7914 4.31836 9.46397 3.64579Z" fill="#191919" stroke="#191919" stroke-width="0.1"/>
</g>
<defs>
<clipPath id="clip0_278_611">
<rect width="24" height="24" fill="white"/>
</clipPath>
</defs>
</svg>
