<svg width="29" height="29" viewBox="0 0 29 29" fill="none" xmlns="http://www.w3.org/2000/svg">
<path d="M13.0138 22.1125C11.2142 22.1125 9.45508 21.5789 7.9588 20.5791C6.46252 19.5793 5.29631 18.1583 4.60764 16.4957C3.91898 14.8332 3.7388 13.0037 4.08987 11.2387C4.44095 9.47373 5.30752 7.85249 6.58001 6.58001C7.85249 5.30752 9.47373 4.44095 11.2387 4.08987C13.0037 3.7388 14.8332 3.91898 16.4957 4.60764C18.1583 5.29631 19.5793 6.46252 20.5791 7.9588C21.5789 9.45508 22.1125 11.2142 22.1125 13.0138C22.1125 14.2087 21.8772 15.3918 21.4199 16.4957C20.9627 17.5996 20.2925 18.6027 19.4476 19.4476C18.6027 20.2925 17.5996 20.9627 16.4957 21.4199C15.3918 21.8772 14.2087 22.1125 13.0138 22.1125ZM13.0138 5.73963C11.5799 5.73963 10.1782 6.16483 8.98591 6.96147C7.79365 7.75811 6.8644 8.89041 6.31567 10.2152C5.76693 11.5399 5.62336 12.9977 5.9031 14.404C6.18284 15.8104 6.87334 17.1022 7.88727 18.1161C8.9012 19.1301 10.193 19.8206 11.5994 20.1003C13.0057 20.3801 14.4635 20.2365 15.7882 19.6878C17.113 19.139 18.2453 18.2098 19.0419 17.0175C19.8386 15.8253 20.2638 14.4235 20.2638 12.9896C20.2638 11.0668 19.5 9.22274 18.1403 7.8631C16.7807 6.50346 14.9366 5.73963 13.0138 5.73963Z" fill="#191919"/>
<path d="M24.4317 25.3384C24.3126 25.339 24.1946 25.3157 24.0846 25.2701C23.9747 25.2244 23.8749 25.1573 23.7912 25.0726L18.8008 20.0821C18.6407 19.9103 18.5536 19.6831 18.5577 19.4483C18.5619 19.2136 18.657 18.9896 18.823 18.8235C18.9891 18.6575 19.2131 18.5624 19.4479 18.5582C19.6826 18.5541 19.9099 18.6412 20.0817 18.8013L25.0721 23.7917C25.2418 23.9616 25.3371 24.192 25.3371 24.4321C25.3371 24.6723 25.2418 24.9026 25.0721 25.0726C24.9884 25.1573 24.8886 25.2244 24.7787 25.2701C24.6687 25.3157 24.5507 25.339 24.4317 25.3384Z" fill="#191919"/>
</svg>
