<svg width="28" height="28" viewBox="0 0 28 28" fill="none" xmlns="http://www.w3.org/2000/svg">
<rect width="28" height="28" rx="8" fill="#1F1F1F"/>
<path d="M14 10.3077C13.2697 10.3077 12.5559 10.5242 11.9487 10.93C11.3415 11.3357 10.8682 11.9123 10.5888 12.587C10.3093 13.2617 10.2362 14.0041 10.3786 14.7203C10.5211 15.4366 10.8728 16.0945 11.3891 16.6109C11.9055 17.1272 12.5634 17.4789 13.2797 17.6214C13.9959 17.7638 14.7383 17.6907 15.413 17.4112C16.0877 17.1318 16.6643 16.6585 17.07 16.0513C17.4758 15.4441 17.6923 14.7303 17.6923 14C17.6913 13.0211 17.302 12.0825 16.6097 11.3903C15.9175 10.698 14.9789 10.3087 14 10.3077ZM14 16.4615C13.5132 16.4615 13.0372 16.3172 12.6324 16.0467C12.2276 15.7762 11.9121 15.3918 11.7258 14.942C11.5395 14.4922 11.4908 13.9973 11.5858 13.5198C11.6807 13.0423 11.9152 12.6037 12.2594 12.2594C12.6037 11.9152 13.0423 11.6807 13.5198 11.5858C13.9973 11.4908 14.4922 11.5395 14.942 11.7258C15.3918 11.9121 15.7762 12.2276 16.0467 12.6324C16.3172 13.0372 16.4615 13.5132 16.4615 14C16.4615 14.6528 16.2022 15.2789 15.7406 15.7406C15.2789 16.2022 14.6528 16.4615 14 16.4615ZM17.6923 6H10.3077C9.1656 6.00122 8.07063 6.45546 7.26304 7.26304C6.45546 8.07063 6.00122 9.1656 6 10.3077V17.6923C6.00122 18.8344 6.45546 19.9294 7.26304 20.737C8.07063 21.5445 9.1656 21.9988 10.3077 22H17.6923C18.8344 21.9988 19.9294 21.5445 20.737 20.737C21.5445 19.9294 21.9988 18.8344 22 17.6923V10.3077C21.9988 9.1656 21.5445 8.07063 20.737 7.26304C19.9294 6.45546 18.8344 6.00122 17.6923 6ZM20.7692 17.6923C20.7692 18.5084 20.4451 19.291 19.868 19.868C19.291 20.4451 18.5084 20.7692 17.6923 20.7692H10.3077C9.49164 20.7692 8.70901 20.4451 8.13198 19.868C7.55494 19.291 7.23077 18.5084 7.23077 17.6923V10.3077C7.23077 9.49164 7.55494 8.70901 8.13198 8.13198C8.70901 7.55494 9.49164 7.23077 10.3077 7.23077H17.6923C18.5084 7.23077 19.291 7.55494 19.868 8.13198C20.4451 8.70901 20.7692 9.49164 20.7692 10.3077V17.6923ZM18.9231 10C18.9231 10.1826 18.8689 10.361 18.7675 10.5128C18.6661 10.6646 18.5219 10.7829 18.3532 10.8528C18.1846 10.9227 17.999 10.941 17.8199 10.9053C17.6409 10.8697 17.4764 10.7818 17.3473 10.6527C17.2182 10.5236 17.1303 10.3591 17.0947 10.1801C17.059 10.001 17.0773 9.81542 17.1472 9.64675C17.2171 9.47808 17.3354 9.33392 17.4872 9.23249C17.639 9.13106 17.8174 9.07692 18 9.07692C18.2448 9.07692 18.4796 9.17418 18.6527 9.34729C18.8258 9.5204 18.9231 9.75518 18.9231 10Z" fill="white"/>
</svg>
